<mxfile host="app.diagrams.net" modified="2024-01-03T09:07:08.687Z" agent="Mozilla/5.0 (Windows NT 10.0; Win64; x64) AppleWebKit/537.36 (KHTML, like Gecko) Chrome/120.0.0.0 Safari/537.36 Edg/120.0.0.0" etag="M4odKfiD3D5HcJ9Y9xIp" version="22.1.16" type="device">
  <diagram id="kgpKYQtTHZ0yAKxKKP6v" name="Page-1">
    <mxGraphModel dx="1616" dy="900" grid="1" gridSize="10" guides="1" tooltips="1" connect="1" arrows="1" fold="1" page="1" pageScale="1" pageWidth="850" pageHeight="1100" math="0" shadow="0">
      <root>
        <mxCell id="0" />
        <mxCell id="1" parent="0" />
        <mxCell id="3nuBFxr9cyL0pnOWT2aG-5" value=":Bus Simulation" style="shape=umlLifeline;perimeter=lifelinePerimeter;container=1;collapsible=0;recursiveResize=0;rounded=0;shadow=0;strokeWidth=1;" parent="1" vertex="1">
          <mxGeometry x="587" y="80" width="130" height="400" as="geometry" />
        </mxCell>
        <mxCell id="3nuBFxr9cyL0pnOWT2aG-6" value="" style="points=[];perimeter=orthogonalPerimeter;rounded=0;shadow=0;strokeWidth=1;" parent="3nuBFxr9cyL0pnOWT2aG-5" vertex="1">
          <mxGeometry x="60" y="80" width="10" height="300" as="geometry" />
        </mxCell>
        <mxCell id="3nuBFxr9cyL0pnOWT2aG-4" value="" style="points=[];perimeter=orthogonalPerimeter;rounded=0;shadow=0;strokeWidth=1;" parent="3nuBFxr9cyL0pnOWT2aG-5" vertex="1">
          <mxGeometry x="66" y="190" width="10" height="40" as="geometry" />
        </mxCell>
        <mxCell id="3nuBFxr9cyL0pnOWT2aG-1" value=":FMU" style="shape=umlLifeline;perimeter=lifelinePerimeter;container=1;collapsible=0;recursiveResize=0;rounded=0;shadow=0;strokeWidth=1;" parent="1" vertex="1">
          <mxGeometry x="424" y="80" width="100" height="400" as="geometry" />
        </mxCell>
        <mxCell id="3nuBFxr9cyL0pnOWT2aG-2" value="" style="points=[];perimeter=orthogonalPerimeter;rounded=0;shadow=0;strokeWidth=1;" parent="3nuBFxr9cyL0pnOWT2aG-1" vertex="1">
          <mxGeometry x="45" y="80" width="10" height="300" as="geometry" />
        </mxCell>
        <mxCell id="eGcspzg-jYoVY6njO30K-1" value=":FMU" style="shape=umlLifeline;perimeter=lifelinePerimeter;container=1;collapsible=0;recursiveResize=0;rounded=0;shadow=0;strokeWidth=1;" parent="1" vertex="1">
          <mxGeometry x="825" y="80" width="100" height="400" as="geometry" />
        </mxCell>
        <mxCell id="eGcspzg-jYoVY6njO30K-2" value="" style="points=[];perimeter=orthogonalPerimeter;rounded=0;shadow=0;strokeWidth=1;" parent="eGcspzg-jYoVY6njO30K-1" vertex="1">
          <mxGeometry x="45" y="80" width="10" height="300" as="geometry" />
        </mxCell>
        <mxCell id="eGcspzg-jYoVY6njO30K-4" value="Arbitration (A, B)" style="verticalAlign=bottom;endArrow=block;shadow=0;strokeWidth=1;spacingLeft=6;" parent="1" edge="1">
          <mxGeometry x="0.25" y="43" relative="1" as="geometry">
            <mxPoint x="667" y="270" as="sourcePoint" />
            <mxPoint x="667" y="310" as="targetPoint" />
            <Array as="points">
              <mxPoint x="687" y="270" />
              <mxPoint x="687" y="310" />
            </Array>
            <mxPoint as="offset" />
          </mxGeometry>
        </mxCell>
        <mxCell id="Ct78ly6aTw_c9TOjw8sM-1" value="Transmit(A)" style="verticalAlign=bottom;endArrow=block;entryX=0;entryY=0;shadow=0;strokeWidth=1;" parent="1" edge="1">
          <mxGeometry relative="1" as="geometry">
            <mxPoint x="480" y="179" as="sourcePoint" />
            <mxPoint x="648" y="179" as="targetPoint" />
          </mxGeometry>
        </mxCell>
        <mxCell id="_HQoY5Zo2aadwidPgHyK-4" value="Transmit(B)" style="verticalAlign=bottom;endArrow=block;shadow=0;strokeWidth=1;exitX=0.02;exitY=0.088;exitDx=0;exitDy=0;exitPerimeter=0;" parent="1" edge="1">
          <mxGeometry relative="1" as="geometry">
            <mxPoint x="870.2" y="227.55999999999995" as="sourcePoint" />
            <mxPoint x="657" y="228" as="targetPoint" />
          </mxGeometry>
        </mxCell>
        <mxCell id="eGcspzg-jYoVY6njO30K-8" value="Transmit(A)" style="verticalAlign=bottom;endArrow=block;shadow=0;strokeWidth=1;endFill=1;fontSize=11;" parent="1" edge="1">
          <mxGeometry relative="1" as="geometry">
            <mxPoint x="657" y="401" as="sourcePoint" />
            <mxPoint x="867" y="401" as="targetPoint" />
          </mxGeometry>
        </mxCell>
        <mxCell id="_HQoY5Zo2aadwidPgHyK-19" value="Arbitration Lost(B)" style="verticalAlign=bottom;endArrow=block;entryX=0.42;entryY=0.587;shadow=0;strokeWidth=1;entryDx=0;entryDy=0;entryPerimeter=0;align=center;spacing=4;" parent="1" edge="1">
          <mxGeometry x="-0.0183" y="-2" relative="1" as="geometry">
            <mxPoint x="657" y="368" as="sourcePoint" />
            <mxPoint x="867" y="368.1199999999999" as="targetPoint" />
            <mxPoint as="offset" />
          </mxGeometry>
        </mxCell>
        <mxCell id="3nuBFxr9cyL0pnOWT2aG-7" value="Confirm(A)" style="verticalAlign=bottom;endArrow=block;endSize=8;exitX=0;exitY=0.95;shadow=0;strokeWidth=1;endFill=1;" parent="1" edge="1">
          <mxGeometry relative="1" as="geometry">
            <mxPoint x="480" y="433" as="targetPoint" />
            <mxPoint x="647" y="432.9999999999998" as="sourcePoint" />
          </mxGeometry>
        </mxCell>
        <mxCell id="LSBVuCewR0o2UGaE-sGD-1" value="" style="strokeWidth=2;html=1;shape=mxgraph.flowchart.annotation_2;align=left;labelPosition=right;pointerEvents=1;fontSize=11;fillColor=none;" parent="1" vertex="1">
          <mxGeometry x="401" y="150" width="17" height="180" as="geometry" />
        </mxCell>
        <mxCell id="LSBVuCewR0o2UGaE-sGD-2" value="" style="strokeWidth=2;html=1;shape=mxgraph.flowchart.annotation_2;align=left;labelPosition=right;pointerEvents=1;fontSize=11;fillColor=none;" parent="1" vertex="1">
          <mxGeometry x="401" y="353" width="17" height="117" as="geometry" />
        </mxCell>
        <mxCell id="LSBVuCewR0o2UGaE-sGD-3" value="Event Mode" style="text;align=left;fontStyle=0;verticalAlign=middle;spacingLeft=3;spacingRight=3;strokeColor=none;rotatable=0;points=[[0,0.5],[1,0.5]];portConstraint=eastwest;fontSize=11;fillColor=none;" parent="1" vertex="1">
          <mxGeometry x="333" y="397.5" width="80" height="26" as="geometry" />
        </mxCell>
        <mxCell id="LSBVuCewR0o2UGaE-sGD-8" value="Event Mode" style="text;align=left;fontStyle=0;verticalAlign=middle;spacingLeft=3;spacingRight=3;strokeColor=none;rotatable=0;points=[[0,0.5],[1,0.5]];portConstraint=eastwest;fontSize=11;fillColor=none;" parent="1" vertex="1">
          <mxGeometry x="333" y="226" width="80" height="26" as="geometry" />
        </mxCell>
        <mxCell id="LSBVuCewR0o2UGaE-sGD-9" value="" style="strokeWidth=2;html=1;shape=mxgraph.flowchart.annotation_2;align=left;labelPosition=right;pointerEvents=1;fontSize=11;fillColor=none;" parent="1" vertex="1">
          <mxGeometry x="401" y="334" width="17" height="15" as="geometry" />
        </mxCell>
        <mxCell id="LSBVuCewR0o2UGaE-sGD-10" value="Step Mode" style="text;align=left;fontStyle=0;verticalAlign=middle;spacingLeft=3;spacingRight=3;strokeColor=none;rotatable=0;points=[[0,0.5],[1,0.5]];portConstraint=eastwest;fontSize=11;fillColor=none;" parent="1" vertex="1">
          <mxGeometry x="333" y="327" width="80" height="26" as="geometry" />
        </mxCell>
      </root>
    </mxGraphModel>
  </diagram>
</mxfile>
